<?xml version="1.0" encoding="UTF-8"?>
<svg width="48px" height="48px" viewBox="0 0 48 48" version="1.1" xmlns="http://www.w3.org/2000/svg" xmlns:xlink="http://www.w3.org/1999/xlink">
    <title>0 - unprioritised</title>
    <g id="0---unprioritised" stroke="none" stroke-width="1" fill="none" fill-rule="evenodd">
        <path d="M23.6666667,30 C26.9833171,30 29.6666667,27.3166504 29.6666667,24 C29.6666667,20.6833496 26.9833171,18 23.6666667,18 C20.3500163,18 17.6666667,20.6833496 17.6666667,24 C17.6666667,27.3166504 20.3500163,30 23.6666667,30 Z M38.3333333,30 C41.6499837,30 44.3333333,27.3166504 44.3333333,24 C44.3333333,20.6833496 41.6499837,18 38.3333333,18 C35.0166829,18 32.3333333,20.6833496 32.3333333,24 C32.3333333,27.3166504 35.0166829,30 38.3333333,30 Z M9,30 C12.3166504,30 15,27.3166504 15,24 C15,20.6833496 12.3166504,18 9,18 C5.68334961,18 3,20.6833496 3,24 C3,27.3166504 5.68334961,30 9,30 Z" id="eellipsis-h" fill="#999999" fill-rule="nonzero"></path>
    </g>
</svg>