<?xml version="1.0" encoding="UTF-8"?>
<svg width="48px" height="48px" viewBox="0 0 48 48" version="1.1" xmlns="http://www.w3.org/2000/svg" xmlns:xlink="http://www.w3.org/1999/xlink">
    <title>1 - lowest</title>
    <g id="1---lowest" stroke="none" stroke-width="1" fill="none" fill-rule="evenodd">
        <path d="M9.12788098,26.8364748 L24.0216098,12.0101572 L38.9153386,26.826885 C39.8202652,27.7318116 41.274071,27.7318116 42.1789976,26.826885 L44.3644541,24.6414284 C45.2694748,23.7460917 45.2694748,22.2826961 44.3644541,21.3776754 L25.6582812,2.67150256 C24.7532606,1.77616581 23.289959,1.77616581 22.3849384,2.67150256 L3.67876547,21.3873593 C2.77374484,22.2826961 2.77374484,23.7460917 3.67876547,24.6510183 L5.86422201,26.8364748 C6.76914863,27.7318116 8.22295437,27.7318116 9.12788098,26.8364748 Z M9.12788098,45.3212345 L24.0216098,30.4949169 L38.9153386,45.3212345 C39.8202652,46.2165713 41.274071,46.2165713 42.1789976,45.3212345 L44.3644541,43.135778 C45.2694748,42.2308514 45.2694748,40.7674558 44.3644541,39.872119 L25.6582812,21.1562622 C24.7532606,20.2609255 23.289959,20.2609255 22.3849384,21.1562622 L3.67876547,39.872119 C2.77374484,40.7770456 2.77374484,42.2404412 3.67876547,43.135778 L5.86422201,45.3212345 C6.76914863,46.2262552 8.22295437,46.2262552 9.12788098,45.3212345 Z" id="cchevron-double-up" fill="#2A8735" fill-rule="nonzero" transform="translate(24.021610, 24.000000) scale(1, -1) translate(-24.021610, -24.000000) "></path>
    </g>
</svg>